<svg width="766" height="390" viewBox="0 0 766 390" fill="none" xmlns="http://www.w3.org/2000/svg">
<path d="M551.873 231.92V213.349H579.73V222.634H616.873V204.063H570.445C560.23 204.063 551.873 195.706 551.873 185.492V157.634C551.873 147.42 560.23 139.063 570.445 139.063H626.159C636.373 139.063 644.73 147.42 644.73 157.634V176.206H616.873V166.92H579.73V185.492H626.159C636.373 185.492 644.73 193.849 644.73 204.063V231.92C644.73 242.134 636.373 250.492 626.159 250.492H570.445C560.23 250.492 551.873 242.134 551.873 231.92ZM691.159 250.492H746.873C757.088 250.492 765.445 242.134 765.445 231.92V204.063C765.445 193.849 757.088 185.492 746.873 185.492H700.445V166.92H737.588V176.206H765.445V157.634C765.445 147.42 757.088 139.063 746.873 139.063H691.159C680.945 139.063 672.588 147.42 672.588 157.634V185.492C672.588 195.706 680.945 204.063 691.159 204.063H737.588V222.634H700.445V213.349H672.588V231.92C672.588 242.134 680.945 250.492 691.159 250.492ZM524.016 157.634C524.016 147.42 515.659 139.063 505.445 139.063H449.73C439.516 139.063 431.159 147.42 431.159 157.634V231.92C431.159 242.134 439.516 250.492 449.73 250.492H505.445C515.659 250.492 524.016 242.134 524.016 231.92V213.349H496.159V222.634H459.016V166.92H496.159V176.206H524.016V157.634Z" fill="white"/>
<path d="M0 0H327.6C344.149 0 360.021 6.57427 371.723 18.2765C383.426 29.9788 390 45.8505 390 62.4V327.6C390 344.15 383.426 360.021 371.723 371.723C360.021 383.426 344.149 390 327.6 390H62.4C45.8505 390 29.9788 383.426 18.2765 371.723C6.57427 360.021 0 344.15 0 327.6V0Z" fill="white"/>
<path d="M98.6699 318.63V253.11C98.6699 226.98 115.44 212.94 140.79 212.94C165.75 212.55 181.35 228.93 180.57 256.62H151.71C152.49 246.09 147.81 238.29 140.01 238.68C130.26 238.68 127.53 245.31 127.53 257.79V314.73C127.53 326.82 131.43 332.67 140.01 333.06C148.98 333.06 152.49 324.09 151.71 313.95H180.57C182.13 342.42 164.19 359.19 138.84 358.8C114.27 358.8 98.6699 345.15 98.6699 318.63ZM191.1 313.95H218.01C218.4 326.43 222.3 334.23 230.88 334.23C239.46 334.23 242.58 329.16 242.58 317.46C242.58 307.71 238.29 302.25 227.76 297.18L217.62 292.5C199.68 283.92 192.27 273.39 192.27 252.33C192.27 228.93 207.09 212.55 231.27 212.55C255.45 212.55 268.32 229.32 268.71 256.62H242.58C242.58 245.31 240.24 237.51 231.66 237.51C223.86 237.51 219.96 241.41 219.96 251.16C219.96 260.91 223.47 264.81 232.83 268.71L242.19 273C262.08 282.36 270.66 294.45 270.66 317.07C270.66 343.98 255.45 358.8 230.49 358.8C205.53 358.8 191.49 341.64 191.1 313.95ZM279.24 313.95H306.54C306.54 326.43 310.83 334.23 319.02 334.23C327.21 334.23 330.72 329.16 330.72 317.46C330.72 307.71 326.82 302.25 315.9 297.18L305.76 292.5C287.82 283.92 280.8 273.39 280.8 252.33C280.8 228.93 295.23 212.55 319.8 212.55C344.37 212.55 356.46 229.32 357.24 256.62H331.11C330.72 245.31 328.38 237.51 319.8 237.51C312 237.51 308.49 241.41 308.49 251.16C308.49 260.91 311.61 264.81 320.97 268.71L330.72 273C350.22 282.36 358.8 294.45 358.8 317.07C358.8 343.98 343.59 358.8 318.63 358.8C293.67 358.8 279.63 341.64 279.24 313.95Z" fill="black"/>
</svg>
