<svg width="939" height="390" viewBox="0 0 939 390" fill="none" xmlns="http://www.w3.org/2000/svg">
<path d="M182.204 0.102847C181.366 0.178886 178.697 0.445996 176.295 0.635119C120.91 5.62835 69.0309 35.5137 36.1718 81.4452C17.8773 106.985 6.17291 135.953 1.75283 166.64C0.191076 177.352 0 180.516 0 195.038C0 209.561 0.191075 212.726 1.75477 223.435C12.3497 296.659 64.4588 358.183 135.129 380.977C147.785 385.056 161.125 387.838 176.296 389.515C182.206 390.162 207.744 390.162 213.654 389.515C239.841 386.617 262.025 380.138 283.905 368.968C287.259 367.255 287.908 366.796 287.45 366.416C287.146 366.186 272.85 347.013 255.698 323.838L224.518 281.718L185.445 223.894C163.947 192.103 146.261 166.106 146.107 166.106C145.954 166.069 145.802 191.76 145.726 223.131C145.611 278.059 145.574 280.27 144.888 281.564C143.897 283.432 143.135 284.195 141.532 285.035C140.314 285.643 139.245 285.758 133.49 285.758H126.896L125.141 284.653C124.054 283.972 123.172 283.011 122.587 281.87L121.787 280.155L121.865 203.73L121.978 127.266L123.16 125.778C123.77 124.979 125.067 123.949 125.981 123.454C127.543 122.691 128.153 122.615 134.747 122.615C142.525 122.615 143.819 122.92 145.841 125.131C146.413 125.741 167.567 157.607 192.879 195.991C218.504 234.843 244.145 273.685 269.801 312.516L300.677 359.288L302.241 358.259C316.076 349.263 330.715 336.455 342.302 323.113C366.965 294.791 382.861 260.258 388.197 223.435C389.759 212.726 389.95 209.561 389.95 195.038C389.95 180.514 389.759 177.352 388.197 166.64C377.6 93.4164 325.491 31.895 254.821 9.1008C242.356 5.05903 229.092 2.27678 214.225 0.600024C210.565 0.217879 185.369 -0.19936 182.206 0.104796M262.025 118.041C263.854 118.956 265.342 120.709 265.876 122.537C266.18 123.53 266.256 144.723 266.18 192.484L266.065 261.02L253.982 242.494L241.861 223.97V174.15C241.861 141.941 242.013 123.834 242.241 122.957C242.851 120.824 244.185 119.147 246.016 118.154C247.577 117.355 248.151 117.277 254.134 117.277C259.777 117.277 260.767 117.355 262.025 118.041Z" fill="white"/>
<path d="M439.864 145.087V245.546H457.107V166.558L520.7 245.585H628.693V229.546H559.005V203.026H615.041V186.987H559.005V161.168H628.689V145.118H541.758V161.168H541.766V244.844L461.416 145.087H439.864ZM771.672 145.126V161.172H806.885V245.597H824.121V161.172H858.62V145.122H771.672V145.126ZM649.532 145.169L730.369 245.636H752.998L712.579 195.437L752.939 145.247L730.361 145.286L701.275 181.399L672.106 145.173H649.528L649.532 145.169ZM923.113 202.094C920.146 202.094 917.479 202.593 915.116 203.63C912.765 204.657 910.912 206.097 909.555 207.951C908.19 209.81 907.508 211.972 907.508 214.44C907.502 217.44 908.516 219.84 910.549 221.642C912.569 223.451 915.33 224.798 918.832 225.682L923.667 226.898C925.032 227.229 926.37 227.664 927.668 228.201C928.677 228.598 929.586 229.212 930.331 229.999C930.979 230.754 931.324 231.722 931.298 232.717C931.308 233.857 930.918 234.965 930.195 235.848C929.41 236.795 928.387 237.515 927.231 237.934C925.819 238.456 924.322 238.71 922.817 238.683C921.336 238.706 919.862 238.466 918.465 237.973C917.248 237.535 916.168 236.786 915.33 235.801C914.505 234.764 914.025 233.494 913.957 232.171H906.388C906.492 234.944 907.228 237.3 908.596 239.236C910.647 242.142 911.856 242.641 914.289 243.643C916.707 244.657 919.58 245.164 922.876 245.164C926.286 245.159 929.189 244.639 931.583 243.604C933.988 242.551 935.826 241.098 937.097 239.244C938.372 237.376 939 235.236 939 232.779C938.997 230.959 938.652 229.377 937.963 228.033C937.284 226.693 936.327 225.514 935.155 224.574C933.938 223.599 932.588 222.801 931.146 222.207C929.647 221.569 928.094 221.067 926.506 220.706L922.528 219.731C921.649 219.521 920.781 219.267 919.928 218.971C919.11 218.694 918.329 218.321 917.6 217.859C916.921 217.454 916.347 216.896 915.923 216.229C915.499 215.553 915.285 214.766 915.307 213.968C915.307 212.96 915.632 211.98 916.235 211.172C916.843 210.353 917.736 209.706 918.879 209.222C920.192 208.72 921.59 208.476 922.996 208.505C925.279 208.502 927.138 209 928.573 209.998C929.266 210.465 929.845 211.083 930.266 211.806C930.687 212.528 930.938 213.337 931.002 214.17H938.411C938.404 211.926 937.706 209.738 936.411 207.904C935.111 206.084 933.321 204.66 931.041 203.63C928.766 202.601 926.124 202.089 923.113 202.094ZM891.925 202.655V232.097C891.912 233.571 891.683 234.811 891.239 235.817C890.838 236.765 890.147 237.562 889.266 238.094C888.41 238.614 887.367 238.874 886.134 238.874C885.006 238.874 884.004 238.653 883.128 238.211C882.282 237.796 881.575 237.144 881.092 236.335C880.587 235.444 880.325 234.435 880.332 233.411H872.677C872.672 235.99 873.253 238.142 874.42 239.868C875.584 241.599 877.224 242.956 879.143 243.775C881.26 244.684 883.546 245.136 885.85 245.101C888.572 245.101 890.957 244.581 893.005 243.542C895.011 242.545 896.686 240.989 897.825 239.061C898.969 237.119 899.551 234.796 899.572 232.093V202.655H891.925ZM683.957 202.885L649.47 245.71H672.106L695.258 216.931L683.957 202.885ZM862.496 236.023C861.232 236.023 860.153 236.46 859.259 237.334C858.826 237.733 858.482 238.221 858.251 238.763C858.02 239.306 857.906 239.891 857.918 240.48C857.903 241.077 858.014 241.67 858.246 242.219C858.477 242.769 858.822 243.264 859.259 243.67C860.153 244.546 861.232 244.983 862.496 244.98C863.283 244.987 864.058 244.777 864.734 244.372C865.418 243.981 865.992 243.423 866.403 242.75C866.827 242.069 867.051 241.283 867.05 240.48C867.05 239.889 866.927 239.304 866.689 238.763C866.451 238.221 866.104 237.735 865.67 237.334C865.255 236.914 864.761 236.582 864.216 236.356C863.67 236.131 863.085 236.018 862.496 236.023Z" fill="white"/>
</svg>
