<svg width="882" height="362" viewBox="0 0 882 362" fill="none" xmlns="http://www.w3.org/2000/svg">
<path d="M340.063 118.349C335.354 117.662 331.313 115.641 326.604 114.308C327.292 111.62 327.292 108.933 328.625 104.891C338.042 56.5161 331.333 18.2245 309.813 4.76614C288.313 -7.31719 253.354 5.43281 218.417 35.6828C215.708 38.3703 211.021 41.0578 208.333 45.0786C206.313 43.0786 203.625 41.0578 201.604 38.3703C164.646 5.45365 128.354 -8.00469 105.521 4.76614C84 16.8495 77.2917 53.8286 86.6875 98.8495C87.375 103.558 88.7083 108.266 89.3958 112.287C84.6875 112.974 79.2917 114.995 74.6042 116.995C30.9167 132.454 0 157.329 0 180.849C0 206.37 32.9167 231.912 77.9583 246.683C81.9792 247.37 85.3542 249.391 89.375 249.391C88.7083 254.099 86.6875 258.787 86.6875 264.183C77.9375 308.537 84.6875 344.141 106.188 356.245C127.688 369.683 165.313 356.245 200.271 323.995C202.958 321.287 205.646 319.287 209.021 316.599C212.54 320.064 216.361 323.208 220.438 325.995C254.042 356.245 288.979 368.349 311.167 356.245C332.667 342.808 340.063 305.162 330.646 258.12C329.979 255.433 329.979 250.745 327.937 246.704C330.646 246.037 332.667 246.037 335.354 243.995C382.396 229.912 416.667 204.391 416.667 178.829C416 157.995 383.75 133.808 340.063 118.349ZM229.854 49.8078C260.063 23.5786 288.313 14.1828 301.729 20.8911C315.188 28.287 320.563 60.537 311.833 102.891C311.167 105.579 311.167 107.579 309.813 111.62C291.667 107.579 274.188 104.224 255.375 102.87C245.292 88.0995 233.875 72.662 221.771 60.537C223.789 56.4974 226.521 52.8556 229.833 49.787M136.396 223.829C140.438 231.224 145.146 237.954 149.854 244.662C137.174 243.956 124.579 242.158 112.208 239.287C115.312 226.938 119.821 214.985 125.646 203.662C128.354 209.704 133.042 217.787 136.396 223.829ZM112.229 127.058C124.445 124.311 136.767 122.066 149.167 120.329C144.458 127.058 140.417 133.787 137.083 141.162C133.708 148.558 129.688 154.62 125.646 162.683C119.604 149.912 116.271 138.474 112.229 127.058ZM133.688 182.829C138.396 171.412 145.125 161.329 151.833 149.912C158.563 138.474 165.271 128.391 171.333 117.641C183.417 116.974 195.521 116.974 208.292 116.974C220.375 116.974 233.833 117.641 245.25 117.641C252.646 127.724 258.688 138.474 264.75 148.558C271.458 158.641 276.833 170.079 282.875 181.474C278.188 192.933 271.458 202.995 264.75 214.433C258.021 225.849 251.292 235.933 245.25 246.683C233.167 247.349 221.062 247.349 207.625 247.349C194.187 247.349 182.083 246.683 170.667 246.683C163.271 236.599 157.208 225.849 151.167 214.433C145.125 202.995 139.75 194.266 133.688 182.829ZM280.208 223.829C284.229 216.433 287.583 209.724 291.625 202.329C296.333 213.745 301.042 225.849 305.063 237.954C292.979 240.641 279.521 242.641 266.104 244.662C271.458 237.954 276.167 230.558 280.208 223.829ZM292.292 161.995C288.271 154.62 284.896 147.891 280.875 140.495C276.854 133.099 272.125 127.058 268.792 121.016C281.191 122.747 293.513 124.985 305.729 127.724C301.708 139.162 297 150.579 292.292 161.995ZM208.333 71.3286C217.083 80.7245 224.458 90.1411 231.854 100.224C215.736 99.5556 199.597 99.5556 183.479 100.224C192.208 89.4745 200.938 80.0578 208.333 71.3286ZM114.25 21.537C127.688 14.162 158.604 24.2453 189.521 53.8078C191.542 55.8286 193.542 57.8286 196.229 59.1828C184.146 72.6203 172.708 87.412 161.292 101.516C142.993 103.386 124.817 106.307 106.854 110.266C106.188 106.224 104.833 101.516 104.167 98.162C96.7708 58.5161 101.479 28.9328 114.25 21.537ZM95.4167 235.287C92.7083 234.599 88.6875 233.266 85.3333 232.579C66.5943 227.501 49.0192 218.834 33.5833 207.058C24.1667 200.329 19.4583 192.266 17.4583 182.849C17.4583 168.058 43.6667 149.266 80.625 135.808C85.3333 133.808 90.0417 133.12 94.7292 131.12C100.104 149.245 106.833 166.058 114.229 182.849C107.5 199.662 100.104 216.454 95.4167 235.287ZM188.833 313.912C175.249 326.102 159.526 335.673 142.458 342.141C138.116 344.398 133.314 345.631 128.421 345.747C123.528 345.863 118.674 344.857 114.229 342.808C100.792 335.412 96.0833 307.183 102.792 268.224C103.479 263.495 104.813 258.808 105.5 254.766C123.625 258.808 142.458 261.495 159.917 262.162C170 276.954 182.771 292.391 194.875 305.849C194.208 309.87 191.5 311.891 188.833 313.912ZM208.979 295.099C200.229 285.683 192.854 276.266 184.792 266.183C192.188 266.183 199.583 266.87 208.312 266.87C217.042 266.87 225.104 266.87 232.5 266.183C225.125 274.933 217.708 284.349 208.979 295.099ZM315.167 318.579C314.5 327.995 309.792 338.079 301.729 344.12C288.292 351.516 261.396 342.12 231.833 315.912C229.146 313.204 225.125 310.516 221.75 306.495C234.069 292.828 245.305 278.221 255.354 262.808C274.167 262.141 292.313 258.099 309.792 254.058C310.458 256.766 310.458 260.787 311.812 263.474C316.521 282.308 316.521 301.12 315.167 318.579ZM329.958 231.912C327.937 232.579 325.25 232.579 322.563 233.912C317.188 215.766 309.125 198.974 301.729 182.162C309.125 166.037 315.833 148.558 321.208 131.099C325.917 131.766 329.958 133.787 333.313 135.12C370.938 148.558 397.146 167.37 397.146 182.162C397.833 197.62 370.271 218.454 329.958 231.891M208.333 219.12C229.167 219.12 245.292 202.329 245.292 182.162C245.199 172.391 241.275 163.046 234.363 156.138C227.452 149.23 218.105 145.311 208.333 145.224C188.854 145.224 171.375 162.016 171.375 182.183C171.375 202.349 187.5 219.141 208.333 219.141" fill="white"/>
<path d="M477.427 236V126.909H518.336C526.716 126.909 533.748 128.365 539.43 131.277C545.147 134.189 549.461 138.273 552.373 143.528C555.321 148.749 556.795 154.839 556.795 161.799C556.795 168.795 555.303 174.867 552.32 180.016C549.373 185.13 545.023 189.089 539.27 191.895C533.517 194.665 526.45 196.05 518.069 196.05H488.932V179.643H515.406C520.307 179.643 524.319 178.969 527.444 177.619C530.569 176.234 532.878 174.228 534.369 171.6C535.896 168.937 536.66 165.67 536.66 161.799C536.66 157.928 535.896 154.626 534.369 151.891C532.842 149.121 530.516 147.026 527.391 145.606C524.266 144.15 520.236 143.422 515.3 143.422H497.189V236H477.427ZM533.783 186.568L560.79 236H538.737L512.21 186.568H533.783ZM609.183 237.598C600.98 237.598 593.895 235.893 587.929 232.484C581.999 229.04 577.436 224.175 574.24 217.889C571.044 211.568 569.446 204.129 569.446 195.57C569.446 187.154 571.044 179.768 574.24 173.411C577.471 167.019 581.981 162.048 587.769 158.496C593.558 154.91 600.358 153.116 608.171 153.116C613.213 153.116 617.972 153.933 622.446 155.567C626.956 157.165 630.933 159.651 634.378 163.024C637.858 166.398 640.593 170.695 642.581 175.915C644.57 181.099 645.564 187.278 645.564 194.452V200.364H578.501V187.367H627.08C627.045 183.674 626.246 180.389 624.683 177.513C623.121 174.601 620.937 172.31 618.132 170.641C615.362 168.972 612.13 168.138 608.437 168.138C604.495 168.138 601.033 169.097 598.05 171.014C595.067 172.896 592.741 175.382 591.072 178.472C589.438 181.526 588.604 184.881 588.568 188.539V199.885C588.568 204.643 589.438 208.727 591.178 212.136C592.919 215.51 595.351 218.102 598.476 219.913C601.601 221.689 605.259 222.577 609.449 222.577C612.254 222.577 614.794 222.186 617.066 221.405C619.339 220.588 621.31 219.398 622.979 217.836C624.648 216.273 625.909 214.338 626.761 212.03L644.765 214.054C643.629 218.812 641.463 222.967 638.267 226.518C635.106 230.034 631.058 232.768 626.122 234.722C621.186 236.639 615.539 237.598 609.183 237.598ZM685.421 237.651C680.237 237.651 675.567 236.728 671.412 234.881C667.293 232.999 664.026 230.229 661.611 226.572C659.232 222.914 658.042 218.404 658.042 213.042C658.042 208.425 658.894 204.608 660.599 201.589C662.303 198.571 664.629 196.156 667.577 194.345C670.524 192.534 673.844 191.167 677.538 190.244C681.266 189.285 685.119 188.592 689.097 188.166C693.891 187.669 697.779 187.225 700.762 186.835C703.745 186.408 705.911 185.769 707.261 184.917C708.646 184.029 709.338 182.662 709.338 180.815V180.496C709.338 176.483 708.148 173.376 705.769 171.174C703.39 168.972 699.963 167.871 695.489 167.871C690.766 167.871 687.019 168.901 684.249 170.961C681.515 173.021 679.668 175.453 678.71 178.259L660.705 175.702C662.126 170.73 664.469 166.575 667.737 163.237C671.004 159.864 674.999 157.342 679.722 155.673C684.445 153.969 689.665 153.116 695.382 153.116C699.324 153.116 703.248 153.578 707.154 154.501C711.06 155.425 714.629 156.952 717.861 159.082C721.092 161.178 723.685 164.036 725.638 167.658C727.626 171.281 728.621 175.808 728.621 181.241V236H710.084V224.761H709.445C708.273 227.033 706.621 229.164 704.491 231.153C702.396 233.106 699.75 234.686 696.554 235.893C693.393 237.065 689.683 237.651 685.421 237.651ZM690.428 223.482C694.299 223.482 697.655 222.719 700.496 221.192C703.337 219.629 705.521 217.57 707.048 215.013C708.61 212.456 709.391 209.668 709.391 206.65V197.009C708.788 197.506 707.758 197.967 706.302 198.393C704.881 198.82 703.283 199.192 701.508 199.512C699.732 199.832 697.974 200.116 696.234 200.364C694.494 200.613 692.985 200.826 691.707 201.004C688.83 201.394 686.256 202.033 683.983 202.921C681.71 203.809 679.917 205.052 678.603 206.65C677.289 208.212 676.632 210.237 676.632 212.722C676.632 216.273 677.928 218.955 680.521 220.766C683.113 222.577 686.416 223.482 690.428 223.482ZM783.699 237.598C775.531 237.598 768.518 235.805 762.658 232.218C756.835 228.631 752.342 223.678 749.182 217.357C746.057 211 744.494 203.685 744.494 195.411C744.494 187.101 746.092 179.768 749.288 173.411C752.484 167.019 756.994 162.048 762.818 158.496C768.678 154.91 775.602 153.116 783.592 153.116C790.233 153.116 796.11 154.342 801.224 156.792C806.373 159.207 810.474 162.634 813.528 167.072C816.582 171.476 818.322 176.625 818.749 182.52H800.318C799.572 178.578 797.797 175.293 794.992 172.665C792.222 170.002 788.511 168.67 783.859 168.67C779.917 168.67 776.455 169.736 773.472 171.866C770.489 173.962 768.163 176.98 766.494 180.922C764.86 184.864 764.043 189.587 764.043 195.091C764.043 200.666 764.86 205.46 766.494 209.473C768.127 213.45 770.418 216.522 773.365 218.688C776.348 220.819 779.846 221.884 783.859 221.884C786.7 221.884 789.239 221.352 791.476 220.286C793.749 219.185 795.648 217.605 797.175 215.545C798.702 213.486 799.75 210.982 800.318 208.035H818.749C818.287 213.823 816.582 218.955 813.635 223.429C810.688 227.868 806.675 231.348 801.597 233.869C796.518 236.355 790.553 237.598 783.699 237.598ZM875.438 154.182V169.097H828.403V154.182H875.438ZM840.015 134.58H859.298V211.391C859.298 213.983 859.689 215.972 860.47 217.357C861.287 218.706 862.352 219.629 863.666 220.126C864.98 220.624 866.436 220.872 868.034 220.872C869.241 220.872 870.342 220.783 871.336 220.606C872.366 220.428 873.148 220.268 873.68 220.126L876.93 235.201C875.9 235.556 874.426 235.947 872.508 236.373C870.626 236.799 868.318 237.048 865.584 237.119C860.754 237.261 856.404 236.533 852.533 234.935C848.662 233.301 845.591 230.78 843.318 227.371C841.081 223.962 839.98 219.7 840.015 214.587V134.58Z" fill="white"/>
</svg>
