<svg width="1013" height="389" viewBox="0 0 1013 389" fill="none" xmlns="http://www.w3.org/2000/svg">
<path d="M472.202 267V157.909H497.131V176.091H498.268C500.256 169.794 503.665 164.94 508.495 161.531C513.372 158.075 518.935 156.347 525.185 156.347C526.606 156.347 528.192 156.418 529.944 156.56C531.743 156.654 533.235 156.82 534.418 157.057V180.707C533.329 180.329 531.601 179.997 529.234 179.713C526.914 179.382 524.665 179.216 522.487 179.216C517.799 179.216 513.585 180.234 509.844 182.27C506.151 184.259 503.239 187.028 501.109 190.58C498.978 194.131 497.913 198.226 497.913 202.866V267H472.202ZM595.303 269.131C584.365 269.131 574.919 266.858 566.964 262.312C559.057 257.72 552.973 251.233 548.712 242.852C544.45 234.424 542.32 224.505 542.32 213.094C542.32 201.872 544.45 192.024 548.712 183.548C553.02 175.026 559.034 168.397 566.751 163.662C574.469 158.88 583.536 156.489 593.953 156.489C600.677 156.489 607.021 157.578 612.987 159.756C619 161.886 624.304 165.201 628.896 169.699C633.536 174.197 637.182 179.926 639.834 186.886C642.485 193.799 643.811 202.038 643.811 211.602V219.486H554.393V202.156H619.166C619.119 197.232 618.054 192.852 615.97 189.017C613.887 185.134 610.975 182.08 607.234 179.855C603.541 177.63 599.232 176.517 594.308 176.517C589.053 176.517 584.436 177.795 580.459 180.352C576.482 182.862 573.38 186.176 571.155 190.295C568.977 194.367 567.864 198.842 567.817 203.719V218.847C567.817 225.191 568.977 230.636 571.297 235.182C573.617 239.68 576.86 243.136 581.027 245.551C585.194 247.919 590.071 249.102 595.658 249.102C599.398 249.102 602.784 248.581 605.814 247.54C608.844 246.451 611.472 244.865 613.697 242.781C615.923 240.698 617.604 238.117 618.74 235.04L642.746 237.739C641.231 244.083 638.342 249.623 634.081 254.358C629.867 259.045 624.469 262.691 617.888 265.295C611.306 267.852 603.778 269.131 595.303 269.131ZM706.045 268.918C697.475 268.918 689.804 266.716 683.033 262.312C676.263 257.909 670.912 251.517 666.982 243.136C663.052 234.756 661.087 224.576 661.087 212.597C661.087 200.475 663.076 190.248 667.053 181.915C671.078 173.534 676.499 167.213 683.317 162.952C690.136 158.643 697.735 156.489 706.116 156.489C712.508 156.489 717.763 157.578 721.883 159.756C726.002 161.886 729.269 164.467 731.684 167.497C734.099 170.48 735.969 173.297 737.295 175.949H738.36V121.545H764.141V267H738.857V249.812H737.295C735.969 252.464 734.051 255.281 731.542 258.264C729.032 261.2 725.718 263.709 721.599 265.793C717.479 267.876 712.295 268.918 706.045 268.918ZM713.218 247.824C718.663 247.824 723.303 246.356 727.138 243.42C730.974 240.437 733.886 236.295 735.874 230.991C737.863 225.688 738.857 219.509 738.857 212.455C738.857 205.4 737.863 199.268 735.874 194.06C733.933 188.851 731.045 184.803 727.21 181.915C723.422 179.027 718.758 177.582 713.218 177.582C707.489 177.582 702.707 179.074 698.871 182.057C695.036 185.04 692.148 189.159 690.207 194.415C688.265 199.67 687.295 205.684 687.295 212.455C687.295 219.273 688.265 225.357 690.207 230.707C692.195 236.01 695.107 240.201 698.942 243.278C702.825 246.309 707.584 247.824 713.218 247.824ZM861.07 221.119V157.909H886.78V267H861.851V247.611H860.714C858.252 253.719 854.204 258.714 848.57 262.597C842.982 266.479 836.093 268.42 827.902 268.42C820.752 268.42 814.431 266.834 808.939 263.662C803.494 260.442 799.232 255.778 796.155 249.67C793.077 243.515 791.538 236.081 791.538 227.369V157.909H817.249V223.392C817.249 230.305 819.143 235.797 822.93 239.869C826.718 243.941 831.69 245.977 837.845 245.977C841.633 245.977 845.303 245.054 848.854 243.207C852.405 241.361 855.317 238.615 857.589 234.969C859.91 231.276 861.07 226.659 861.07 221.119ZM934.241 157.909L956.258 198.179L978.63 157.909H1005.83L972.948 212.455L1006.4 267H979.34L956.258 227.724L933.388 267H906.116L939.354 212.455L906.968 157.909H934.241Z" fill="white"/>
<path d="M283.389 271.295C298.481 269.731 309.932 256.714 309.411 241.092C308.891 225.471 295.879 212.974 280.265 212.974H279.225C263.089 213.495 250.599 227.033 251.12 243.175C251.64 250.986 254.762 257.755 259.447 262.441C241.751 297.33 214.687 322.845 174.092 344.194C146.507 358.774 117.882 363.982 89.2578 360.338C65.8366 357.213 47.6204 346.799 36.1686 329.614C19.515 304.099 17.9541 276.5 32.0068 248.903C41.8961 229.115 57.5081 214.535 67.3974 207.245C65.3157 200.476 62.1924 189.021 60.6315 180.69C-14.8356 235.365 -7.02798 309.307 15.8724 344.194C33.0469 370.231 67.9183 386.373 106.432 386.373C116.841 386.373 127.249 385.331 137.659 382.729C204.279 369.71 254.764 330.135 283.389 271.295ZM374.99 206.726C335.434 160.381 277.143 134.866 210.524 134.866H202.197C197.513 125.494 187.624 119.244 176.694 119.244H175.653C159.52 119.765 147.03 133.303 147.549 149.447C148.07 165.067 161.081 177.565 176.694 177.565H177.734C189.184 177.044 199.074 169.754 203.237 159.86H212.606C252.161 159.86 289.634 171.315 323.465 193.707C349.487 210.891 368.224 233.282 378.633 260.359C387.48 282.229 386.959 303.578 377.591 321.804C363.019 349.402 338.558 364.503 306.289 364.503C285.47 364.503 265.693 358.253 255.283 353.567C249.559 358.774 239.149 367.105 231.862 372.314C254.243 382.727 277.143 388.456 299.002 388.456C348.966 388.456 385.919 360.857 399.972 333.26C415.065 303.057 414.023 250.986 374.99 206.726ZM110.596 280.145C111.116 295.767 124.128 308.263 139.741 308.263H140.783C156.917 307.744 169.407 294.204 168.887 278.062C168.367 262.44 155.355 249.944 139.741 249.944H138.701C137.659 249.944 136.097 249.944 135.059 250.463C113.719 215.055 104.871 176.523 107.995 134.865C110.075 103.622 120.485 76.5439 138.701 54.1525C153.794 34.8858 182.939 25.513 202.718 24.9936C257.886 23.9514 281.305 92.6857 282.868 120.285C289.634 121.846 301.084 125.492 308.891 128.096C302.645 43.7407 250.599 0 200.636 0C153.794 0 110.596 33.8469 93.4196 83.8356C69.4792 150.487 85.0927 214.535 114.238 265.045C111.637 268.689 110.075 274.416 110.596 280.145Z" fill="white"/>
</svg>
