<svg width="1817" height="390" viewBox="0 0 1817 390" fill="none" xmlns="http://www.w3.org/2000/svg">
<path d="M767.685 159.909V179.795H704.972V159.909H767.685ZM720.455 133.773H746.165V236.188C746.165 239.644 746.686 242.295 747.727 244.142C748.816 245.941 750.237 247.172 751.989 247.835C753.741 248.498 755.682 248.83 757.812 248.83C759.422 248.83 760.89 248.711 762.216 248.474C763.589 248.238 764.631 248.025 765.341 247.835L769.673 267.935C768.3 268.408 766.335 268.929 763.778 269.497C761.269 270.065 758.191 270.397 754.545 270.491C748.106 270.681 742.306 269.71 737.145 267.58C731.984 265.402 727.888 262.04 724.858 257.494C721.875 252.949 720.407 247.267 720.455 240.449V133.773ZM820.579 271.202C813.666 271.202 807.44 269.971 801.9 267.509C796.407 264.999 792.051 261.306 788.832 256.429C785.659 251.552 784.073 245.539 784.073 238.389C784.073 232.234 785.21 227.144 787.482 223.119C789.755 219.095 792.856 215.875 796.786 213.46C800.716 211.045 805.143 209.223 810.067 207.991C815.039 206.713 820.176 205.79 825.479 205.222C831.871 204.559 837.056 203.967 841.033 203.446C845.011 202.878 847.899 202.026 849.698 200.889C851.545 199.705 852.468 197.883 852.468 195.42V194.994C852.468 189.644 850.882 185.501 847.71 182.565C844.537 179.63 839.968 178.162 834.002 178.162C827.705 178.162 822.71 179.535 819.016 182.281C815.371 185.027 812.908 188.271 811.63 192.011L787.624 188.602C789.518 181.973 792.643 176.434 796.999 171.983C801.355 167.485 806.682 164.123 812.979 161.898C819.277 159.625 826.237 158.489 833.86 158.489C839.116 158.489 844.348 159.104 849.556 160.335C854.764 161.566 859.523 163.602 863.832 166.443C868.14 169.237 871.597 173.048 874.201 177.878C876.853 182.707 878.178 188.744 878.178 195.989V269H853.462V254.014H852.61C851.048 257.045 848.846 259.885 846.005 262.537C843.211 265.141 839.684 267.248 835.423 268.858C831.209 270.42 826.261 271.202 820.579 271.202ZM827.255 252.31C832.416 252.31 836.89 251.292 840.678 249.256C844.466 247.172 847.378 244.426 849.414 241.017C851.497 237.608 852.539 233.891 852.539 229.866V217.011C851.734 217.674 850.361 218.29 848.42 218.858C846.526 219.426 844.395 219.923 842.028 220.349C839.66 220.776 837.317 221.154 834.996 221.486C832.676 221.817 830.664 222.101 828.96 222.338C825.124 222.859 821.692 223.711 818.661 224.895C815.631 226.079 813.24 227.736 811.488 229.866C809.736 231.95 808.86 234.649 808.86 237.963C808.86 242.698 810.588 246.273 814.045 248.688C817.501 251.102 821.905 252.31 827.255 252.31ZM904.031 269V159.909H929.741V269H904.031ZM916.957 144.426C912.885 144.426 909.381 143.077 906.445 140.378C903.51 137.632 902.042 134.341 902.042 130.506C902.042 126.623 903.51 123.332 906.445 120.634C909.381 117.887 912.885 116.514 916.957 116.514C921.076 116.514 924.58 117.887 927.468 120.634C930.404 123.332 931.871 126.623 931.871 130.506C931.871 134.341 930.404 137.632 927.468 140.378C924.58 143.077 921.076 144.426 916.957 144.426ZM981.889 123.545V269H956.179V123.545H981.889ZM1030.84 269L1000.02 159.909H1026.23L1045.4 236.614H1046.4L1066 159.909H1091.92L1111.52 236.188H1112.59L1131.48 159.909H1157.76L1126.86 269H1100.09L1079.63 195.278H1078.14L1057.69 269H1030.84ZM1175.71 269V159.909H1201.42V269H1175.71ZM1188.64 144.426C1184.56 144.426 1181.06 143.077 1178.12 140.378C1175.19 137.632 1173.72 134.341 1173.72 130.506C1173.72 126.623 1175.19 123.332 1178.12 120.634C1181.06 117.887 1184.56 116.514 1188.64 116.514C1192.76 116.514 1196.26 117.887 1199.15 120.634C1202.08 123.332 1203.55 126.623 1203.55 130.506C1203.55 134.341 1202.08 137.632 1199.15 140.378C1196.26 143.077 1192.76 144.426 1188.64 144.426ZM1253.57 205.08V269H1227.86V159.909H1252.43V178.446H1253.71C1256.22 172.338 1260.22 167.485 1265.71 163.886C1271.25 160.288 1278.1 158.489 1286.24 158.489C1293.77 158.489 1300.33 160.098 1305.91 163.318C1311.55 166.538 1315.9 171.202 1318.98 177.31C1322.11 183.418 1323.64 190.828 1323.6 199.54V269H1297.89V203.517C1297.89 196.225 1295.99 190.52 1292.21 186.401C1288.46 182.281 1283.28 180.222 1276.65 180.222C1272.15 180.222 1268.15 181.216 1264.65 183.205C1261.19 185.146 1258.47 187.963 1256.48 191.656C1254.54 195.349 1253.57 199.824 1253.57 205.08ZM1390.22 270.918C1381.65 270.918 1373.98 268.716 1367.21 264.312C1360.43 259.909 1355.08 253.517 1351.15 245.136C1347.22 236.756 1345.26 226.576 1345.26 214.597C1345.26 202.475 1347.25 192.248 1351.23 183.915C1355.25 175.534 1360.67 169.213 1367.49 164.952C1374.31 160.643 1381.91 158.489 1390.29 158.489C1396.68 158.489 1401.94 159.578 1406.05 161.756C1410.17 163.886 1413.44 166.467 1415.86 169.497C1418.27 172.48 1420.14 175.297 1421.47 177.949H1422.53V123.545H1448.31V269H1423.03V251.812H1421.47C1420.14 254.464 1418.22 257.281 1415.71 260.264C1413.2 263.2 1409.89 265.709 1405.77 267.793C1401.65 269.876 1396.47 270.918 1390.22 270.918ZM1397.39 249.824C1402.83 249.824 1407.48 248.356 1411.31 245.42C1415.15 242.437 1418.06 238.295 1420.05 232.991C1422.03 227.688 1423.03 221.509 1423.03 214.455C1423.03 207.4 1422.03 201.268 1420.05 196.06C1418.1 190.851 1415.22 186.803 1411.38 183.915C1407.59 181.027 1402.93 179.582 1397.39 179.582C1391.66 179.582 1386.88 181.074 1383.04 184.057C1379.21 187.04 1376.32 191.159 1374.38 196.415C1372.44 201.67 1371.47 207.684 1371.47 214.455C1371.47 221.273 1372.44 227.357 1374.38 232.707C1376.37 238.01 1379.28 242.201 1383.11 245.278C1387 248.309 1391.76 249.824 1397.39 249.824ZM1523.3 271.131C1512.41 271.131 1503.05 268.74 1495.24 263.957C1487.48 259.175 1481.49 252.57 1477.27 244.142C1473.11 235.667 1471.02 225.913 1471.02 214.881C1471.02 203.801 1473.15 194.024 1477.41 185.548C1481.68 177.026 1487.69 170.397 1495.45 165.662C1503.27 160.88 1512.5 158.489 1523.15 158.489C1532.01 158.489 1539.84 160.122 1546.66 163.389C1553.53 166.609 1559 171.178 1563.07 177.097C1567.14 182.968 1569.46 189.833 1570.03 197.693H1545.45C1544.46 192.437 1542.09 188.058 1538.35 184.554C1534.66 181.003 1529.71 179.227 1523.51 179.227C1518.25 179.227 1513.64 180.648 1509.66 183.489C1505.68 186.282 1502.58 190.307 1500.36 195.562C1498.18 200.818 1497.09 207.116 1497.09 214.455C1497.09 221.888 1498.18 228.28 1500.36 233.631C1502.53 238.934 1505.59 243.029 1509.52 245.918C1513.49 248.759 1518.16 250.179 1523.51 250.179C1527.3 250.179 1530.68 249.469 1533.66 248.048C1536.7 246.58 1539.23 244.473 1541.26 241.727C1543.3 238.981 1544.7 235.643 1545.45 231.713H1570.03C1569.41 239.431 1567.14 246.273 1563.21 252.239C1559.28 258.157 1553.93 262.797 1547.16 266.159C1540.39 269.473 1532.43 271.131 1523.3 271.131ZM1677.36 188.744L1653.92 191.301C1653.26 188.934 1652.1 186.708 1650.44 184.625C1648.83 182.542 1646.66 180.861 1643.91 179.582C1641.16 178.304 1637.8 177.665 1633.82 177.665C1628.47 177.665 1623.98 178.825 1620.33 181.145C1616.73 183.465 1614.96 186.472 1615 190.165C1614.96 193.337 1616.12 195.918 1618.48 197.906C1620.9 199.895 1624.88 201.528 1630.42 202.807L1649.02 206.784C1659.35 209.009 1667.02 212.537 1672.03 217.366C1677.1 222.196 1679.66 228.517 1679.71 236.33C1679.66 243.195 1677.65 249.256 1673.67 254.511C1669.74 259.72 1664.27 263.792 1657.26 266.727C1650.25 269.663 1642.21 271.131 1633.11 271.131C1619.76 271.131 1609.01 268.337 1600.87 262.75C1592.73 257.116 1587.87 249.279 1586.31 239.241L1611.38 236.827C1612.52 241.751 1614.93 245.468 1618.63 247.977C1622.32 250.487 1627.12 251.741 1633.04 251.741C1639.15 251.741 1644.05 250.487 1647.75 247.977C1651.49 245.468 1653.36 242.366 1653.36 238.673C1653.36 235.548 1652.15 232.968 1649.73 230.932C1647.37 228.896 1643.67 227.333 1638.65 226.244L1620.05 222.338C1609.58 220.16 1601.84 216.491 1596.82 211.33C1591.8 206.121 1589.32 199.54 1589.36 191.585C1589.32 184.862 1591.14 179.038 1594.83 174.114C1598.57 169.142 1603.76 165.307 1610.39 162.608C1617.06 159.862 1624.76 158.489 1633.47 158.489C1646.25 158.489 1656.32 161.211 1663.65 166.656C1671.04 172.101 1675.61 179.464 1677.36 188.744ZM1787.13 188.744L1763.69 191.301C1763.03 188.934 1761.87 186.708 1760.21 184.625C1758.6 182.542 1756.42 180.861 1753.68 179.582C1750.93 178.304 1747.57 177.665 1743.59 177.665C1738.24 177.665 1733.74 178.825 1730.1 181.145C1726.5 183.465 1724.72 186.472 1724.77 190.165C1724.72 193.337 1725.88 195.918 1728.25 197.906C1730.66 199.895 1734.64 201.528 1740.18 202.807L1758.79 206.784C1769.11 209.009 1776.78 212.537 1781.8 217.366C1786.87 222.196 1789.42 228.517 1789.47 236.33C1789.42 243.195 1787.41 249.256 1783.43 254.511C1779.5 259.72 1774.04 263.792 1767.03 266.727C1760.02 269.663 1751.97 271.131 1742.88 271.131C1729.53 271.131 1718.78 268.337 1710.64 262.75C1702.49 257.116 1697.64 249.279 1696.08 239.241L1721.15 236.827C1722.28 241.751 1724.7 245.468 1728.39 247.977C1732.08 250.487 1736.89 251.741 1742.81 251.741C1748.92 251.741 1753.82 250.487 1757.51 247.977C1761.25 245.468 1763.12 242.366 1763.12 238.673C1763.12 235.548 1761.91 232.968 1759.5 230.932C1757.13 228.896 1753.44 227.333 1748.42 226.244L1729.81 222.338C1719.35 220.16 1711.61 216.491 1706.59 211.33C1701.57 206.121 1699.08 199.54 1699.13 191.585C1699.08 184.862 1700.91 179.038 1704.6 174.114C1708.34 169.142 1713.52 165.307 1720.15 162.608C1726.83 159.862 1734.52 158.489 1743.24 158.489C1756.02 158.489 1766.08 161.211 1773.42 166.656C1780.81 172.101 1785.38 179.464 1787.13 188.744Z" fill="white"/>
<path d="M325 0C238.225 0 184.275 43.225 162.5 130C195 86.775 233.025 70.525 276.25 81.25C300.95 87.425 318.825 105.3 338.325 125.125C370.175 157.625 406.25 195 487.5 195C574.275 195 628.225 151.775 650 65C617.5 108.225 579.475 124.475 536.25 113.75C511.55 107.575 494 89.7 474.175 69.875C442.325 37.375 406.25 0 325 0ZM162.5 195C75.725 195 21.775 238.225 0 325C32.5 281.775 70.525 265.525 113.75 276.25C138.45 282.425 156 300.3 175.825 320.125C207.675 352.625 243.75 390 325 390C411.775 390 465.725 346.775 487.5 260C455 303.225 416.975 319.475 373.75 308.75C349.05 302.575 331.5 284.7 311.675 264.875C279.825 232.375 243.75 195 162.5 195Z" fill="white"/>
</svg>
