<svg width="1497" height="390" viewBox="0 0 1497 390" fill="none" xmlns="http://www.w3.org/2000/svg">
<g clip-path="url(#clip0_103_107)">
<mask id="mask0_103_107" style="mask-type:luminance" maskUnits="userSpaceOnUse" x="0" y="0" width="390" height="390">
<path d="M0 0H390V390H0V0Z" fill="white"/>
</mask>
<g mask="url(#mask0_103_107)">
<path d="M380.721 5.70228e-05H9.26252C8.04478 5.51487e-05 6.83899 0.240174 5.71415 0.706674C4.58931 1.17317 3.5675 1.8569 2.70719 2.71872C1.84687 3.58055 1.16494 4.60356 0.700411 5.72921C0.235883 6.85487 -0.0021221 8.06107 1.42808e-05 9.27881V380.738C-0.00212638 381.957 0.236415 383.164 0.701957 384.291C1.1675 385.418 1.85089 386.441 2.71292 387.303C3.57496 388.165 4.59869 388.849 5.72541 389.314C6.85213 389.78 8.05966 390.018 9.27877 390.016H380.738C381.957 390.018 383.164 389.78 384.291 389.314C385.418 388.849 386.441 388.165 387.303 387.303C388.165 386.441 388.849 385.418 389.314 384.291C389.78 383.164 390.018 381.957 390.016 380.738V9.26256C390.016 8.04345 389.776 6.83633 389.308 5.71043C388.841 4.58453 388.155 3.56199 387.292 2.70146C386.428 1.84093 385.403 1.15934 384.276 0.695773C383.148 0.232204 381.94 -0.00422055 380.721 5.70228e-05ZM232.148 208.423H185.721V352.853H148.574V208.423H102.148V176.426H232.148V208.423ZM242.548 344.598V306.004C242.548 306.004 263.64 321.896 288.941 321.896C314.243 321.896 313.268 305.354 313.268 303.079C313.268 279.078 241.573 279.078 241.573 225.875C241.573 153.53 346.044 182.081 346.044 182.081L344.744 216.466C344.744 216.466 327.226 204.783 307.434 204.783C287.641 204.783 280.508 214.208 280.508 224.25C280.508 250.201 352.853 247.618 352.853 299.845C352.853 380.283 242.548 344.614 242.548 344.614" fill="white"/>
</g>
</g>
<path d="M447.955 144.634V122.545H564.006V144.634H519.048V268H492.912V144.634H447.955ZM588.722 308.909C585.218 308.909 581.974 308.625 578.991 308.057C576.056 307.536 573.712 306.92 571.96 306.21L577.926 286.182C581.667 287.271 585.005 287.792 587.94 287.744C590.876 287.697 593.456 286.774 595.682 284.974C597.955 283.223 599.872 280.287 601.435 276.168L603.636 270.273L564.077 158.909H591.349L616.491 241.295H617.628L642.841 158.909H670.185L626.506 281.21C624.47 286.987 621.771 291.935 618.409 296.054C615.047 300.221 610.928 303.393 606.051 305.571C601.222 307.796 595.445 308.909 588.722 308.909ZM687.976 308.909V158.909H713.26V176.949H714.751C716.077 174.297 717.947 171.48 720.362 168.497C722.777 165.467 726.044 162.886 730.163 160.756C734.283 158.578 739.538 157.489 745.93 157.489C754.358 157.489 761.958 159.643 768.729 163.952C775.547 168.213 780.945 174.534 784.922 182.915C788.946 191.248 790.959 201.475 790.959 213.597C790.959 225.576 788.994 235.756 785.064 244.136C781.134 252.517 775.784 258.909 769.013 263.312C762.242 267.716 754.571 269.918 746.001 269.918C739.751 269.918 734.567 268.876 730.447 266.793C726.328 264.709 723.014 262.2 720.504 259.264C718.042 256.281 716.125 253.464 714.751 250.812H713.686V308.909H687.976ZM713.189 213.455C713.189 220.509 714.183 226.688 716.172 231.991C718.208 237.295 721.12 241.437 724.908 244.42C728.743 247.356 733.383 248.824 738.828 248.824C744.51 248.824 749.268 247.309 753.104 244.278C756.939 241.201 759.827 237.01 761.768 231.707C763.757 226.357 764.751 220.273 764.751 213.455C764.751 206.684 763.781 200.67 761.839 195.415C759.898 190.159 757.01 186.04 753.175 183.057C749.339 180.074 744.557 178.582 738.828 178.582C733.336 178.582 728.672 180.027 724.837 182.915C721.001 185.803 718.089 189.851 716.101 195.06C714.16 200.268 713.189 206.4 713.189 213.455ZM861.271 270.131C850.334 270.131 840.888 267.858 832.933 263.312C825.026 258.72 818.942 252.233 814.68 243.852C810.419 235.424 808.288 225.505 808.288 214.094C808.288 202.872 810.419 193.024 814.68 184.548C818.989 176.026 825.002 169.397 832.72 164.662C840.438 159.88 849.505 157.489 859.922 157.489C866.645 157.489 872.99 158.578 878.956 160.756C884.969 162.886 890.272 166.201 894.865 170.699C899.505 175.197 903.151 180.926 905.803 187.886C908.454 194.799 909.78 203.038 909.78 212.602V220.486H820.362V203.156H885.135C885.088 198.232 884.022 193.852 881.939 190.017C879.856 186.134 876.944 183.08 873.203 180.855C869.51 178.63 865.201 177.517 860.277 177.517C855.021 177.517 850.405 178.795 846.428 181.352C842.45 183.862 839.349 187.176 837.124 191.295C834.946 195.367 833.833 199.842 833.786 204.719V219.847C833.786 226.191 834.946 231.636 837.266 236.182C839.586 240.68 842.829 244.136 846.996 246.551C851.162 248.919 856.039 250.102 861.626 250.102C865.367 250.102 868.752 249.581 871.783 248.54C874.813 247.451 877.441 245.865 879.666 243.781C881.892 241.698 883.572 239.117 884.709 236.04L908.714 238.739C907.199 245.083 904.311 250.623 900.05 255.358C895.836 260.045 890.438 263.691 883.857 266.295C877.275 268.852 869.747 270.131 861.271 270.131ZM1011.72 162.531C1011.05 156.329 1008.26 151.499 1003.33 148.043C998.458 144.586 992.113 142.858 984.3 142.858C978.808 142.858 974.097 143.687 970.167 145.344C966.237 147.001 963.23 149.25 961.147 152.091C959.064 154.932 957.998 158.175 957.951 161.821C957.951 164.851 958.638 167.479 960.011 169.705C961.431 171.93 963.349 173.824 965.763 175.386C968.178 176.902 970.853 178.18 973.789 179.222C976.725 180.263 979.684 181.139 982.667 181.849L996.303 185.259C1001.8 186.537 1007.08 188.265 1012.14 190.443C1017.25 192.621 1021.82 195.367 1025.85 198.682C1029.92 201.996 1033.14 205.997 1035.51 210.685C1037.88 215.372 1039.06 220.865 1039.06 227.162C1039.06 235.685 1036.88 243.189 1032.52 249.676C1028.17 256.116 1021.87 261.158 1013.63 264.804C1005.44 268.402 995.522 270.202 983.874 270.202C972.558 270.202 962.733 268.45 954.4 264.946C946.114 261.442 939.627 256.329 934.94 249.605C930.299 242.882 927.79 234.69 927.411 225.031H953.335C953.713 230.098 955.276 234.312 958.022 237.673C960.768 241.035 964.343 243.545 968.746 245.202C973.197 246.859 978.169 247.688 983.661 247.688C989.39 247.688 994.409 246.835 998.718 245.131C1003.07 243.379 1006.48 240.964 1008.95 237.886C1011.41 234.761 1012.66 231.116 1012.71 226.949C1012.66 223.161 1011.55 220.036 1009.37 217.574C1007.19 215.064 1004.14 212.981 1000.21 211.324C996.327 209.619 991.781 208.104 986.573 206.778L970.025 202.517C958.046 199.439 948.576 194.776 941.616 188.526C934.703 182.228 931.246 173.871 931.246 163.455C931.246 154.884 933.567 147.38 938.207 140.94C942.894 134.501 949.263 129.506 957.312 125.955C965.361 122.356 974.476 120.557 984.656 120.557C994.978 120.557 1004.02 122.356 1011.79 125.955C1019.6 129.506 1025.73 134.454 1030.18 140.798C1034.63 147.096 1036.93 154.34 1037.07 162.531H1011.72ZM1109 270.131C1098.11 270.131 1088.76 267.74 1080.94 262.957C1073.18 258.175 1067.19 251.57 1062.98 243.142C1058.81 234.667 1056.73 224.913 1056.73 213.881C1056.73 202.801 1058.86 193.024 1063.12 184.548C1067.38 176.026 1073.39 169.397 1081.16 164.662C1088.97 159.88 1098.2 157.489 1108.86 157.489C1117.71 157.489 1125.55 159.122 1132.37 162.389C1139.23 165.609 1144.7 170.178 1148.77 176.097C1152.84 181.968 1155.16 188.833 1155.73 196.693H1131.16C1130.16 191.437 1127.8 187.058 1124.06 183.554C1120.36 180.003 1115.41 178.227 1109.21 178.227C1103.96 178.227 1099.34 179.648 1095.36 182.489C1091.38 185.282 1088.28 189.307 1086.06 194.562C1083.88 199.818 1082.79 206.116 1082.79 213.455C1082.79 220.888 1083.88 227.28 1086.06 232.631C1088.24 237.934 1091.29 242.029 1095.22 244.918C1099.2 247.759 1103.86 249.179 1109.21 249.179C1113 249.179 1116.38 248.469 1119.37 247.048C1122.4 245.58 1124.93 243.473 1126.97 240.727C1129 237.981 1130.4 234.643 1131.16 230.713H1155.73C1155.12 238.431 1152.84 245.273 1148.91 251.239C1144.98 257.157 1139.63 261.797 1132.86 265.159C1126.09 268.473 1118.14 270.131 1109 270.131ZM1176.84 268V158.909H1201.77V177.091H1202.91C1204.9 170.794 1208.31 165.94 1213.14 162.531C1218.01 159.075 1223.58 157.347 1229.83 157.347C1231.25 157.347 1232.83 157.418 1234.58 157.56C1236.38 157.654 1237.88 157.82 1239.06 158.057V181.707C1237.97 181.329 1236.24 180.997 1233.87 180.713C1231.55 180.382 1229.31 180.216 1227.13 180.216C1222.44 180.216 1218.23 181.234 1214.49 183.27C1210.79 185.259 1207.88 188.028 1205.75 191.58C1203.62 195.131 1202.55 199.226 1202.55 203.866V268H1176.84ZM1256.14 268V158.909H1281.85V268H1256.14ZM1269.07 143.426C1264.99 143.426 1261.49 142.077 1258.55 139.378C1255.62 136.632 1254.15 133.341 1254.15 129.506C1254.15 125.623 1255.62 122.332 1258.55 119.634C1261.49 116.887 1264.99 115.514 1269.07 115.514C1273.19 115.514 1276.69 116.887 1279.58 119.634C1282.51 122.332 1283.98 125.623 1283.98 129.506C1283.98 133.341 1282.51 136.632 1279.58 139.378C1276.69 142.077 1273.19 143.426 1269.07 143.426ZM1308.29 308.909V158.909H1333.57V176.949H1335.06C1336.39 174.297 1338.26 171.48 1340.67 168.497C1343.09 165.467 1346.36 162.886 1350.48 160.756C1354.6 158.578 1359.85 157.489 1366.24 157.489C1374.67 157.489 1382.27 159.643 1389.04 163.952C1395.86 168.213 1401.26 174.534 1405.23 182.915C1409.26 191.248 1411.27 201.475 1411.27 213.597C1411.27 225.576 1409.31 235.756 1405.38 244.136C1401.45 252.517 1396.1 258.909 1389.33 263.312C1382.55 267.716 1374.88 269.918 1366.31 269.918C1360.06 269.918 1354.88 268.876 1350.76 266.793C1346.64 264.709 1343.33 262.2 1340.82 259.264C1338.35 256.281 1336.44 253.464 1335.06 250.812H1334V308.909H1308.29ZM1333.5 213.455C1333.5 220.509 1334.5 226.688 1336.48 231.991C1338.52 237.295 1341.43 241.437 1345.22 244.42C1349.06 247.356 1353.7 248.824 1359.14 248.824C1364.82 248.824 1369.58 247.309 1373.42 244.278C1377.25 241.201 1380.14 237.01 1382.08 231.707C1384.07 226.357 1385.06 220.273 1385.06 213.455C1385.06 206.684 1384.09 200.67 1382.15 195.415C1380.21 190.159 1377.32 186.04 1373.49 183.057C1369.65 180.074 1364.87 178.582 1359.14 178.582C1353.65 178.582 1348.98 180.027 1345.15 182.915C1341.31 185.803 1338.4 189.851 1336.41 195.06C1334.47 200.268 1333.5 206.4 1333.5 213.455ZM1487.76 158.909V178.795H1425.05V158.909H1487.76ZM1440.53 132.773H1466.24V235.188C1466.24 238.644 1466.76 241.295 1467.81 243.142C1468.89 244.941 1470.31 246.172 1472.07 246.835C1473.82 247.498 1475.76 247.83 1477.89 247.83C1479.5 247.83 1480.97 247.711 1482.29 247.474C1483.67 247.238 1484.71 247.025 1485.42 246.835L1489.75 266.935C1488.38 267.408 1486.41 267.929 1483.86 268.497C1481.35 269.065 1478.27 269.397 1474.62 269.491C1468.18 269.681 1462.38 268.71 1457.22 266.58C1452.06 264.402 1447.97 261.04 1444.94 256.494C1441.95 251.949 1440.49 246.267 1440.53 239.449V132.773Z" fill="white"/>
<defs>
<clipPath id="clip0_103_107">
<rect width="390" height="390" fill="white"/>
</clipPath>
</defs>
</svg>
